<?xml version="1.0" standalone="no"?>
<svg viewBox="0 0 200 200" xmlns="http://www.w3.org/2000/svg">
  <path fill="#F1C21B" d="M39.7,-70.4C51.6,-61.9,61.6,-51.6,69.6,-39.6C77.7,-27.5,83.9,-13.8,83.8,0C83.7,13.7,77.4,27.4,69.6,39.8C61.8,52.3,52.5,63.6,40.7,73.3C28.9,83,14.4,91,-0.5,91.8C-15.3,92.6,-30.7,86.2,-44.3,77.5C-57.8,68.8,-69.6,57.9,-75.4,44.6C-81.2,31.3,-81,15.7,-79.9,0.6C-78.8,-14.4,-76.9,-28.9,-70.8,-41.5C-64.6,-54.2,-54.3,-65.2,-41.8,-73.4C-29.3,-81.6,-14.6,-87.1,-0.4,-86.4C13.9,-85.8,27.8,-79,39.7,-70.4Z" transform="translate(100 100)" />
</svg>
