<?xml version="1.0" standalone="no"?>
<svg viewBox="0 0 200 200" xmlns="http://www.w3.org/2000/svg">
  <path fill="#F1C21B" d="M43.7,-75.5C55.5,-68.9,63.2,-54.9,68.1,-41.1C73,-27.3,75.2,-13.6,76.4,0.7C77.7,15.1,78.2,30.2,72.4,42.7C66.7,55.1,54.9,64.8,41.8,72.8C28.7,80.9,14.3,87.3,-0.1,87.4C-14.4,87.5,-28.9,81.3,-42.7,73.6C-56.5,66,-69.8,57,-77,44.5C-84.1,31.9,-85.3,16,-85.2,0.1C-85,-15.8,-83.6,-31.6,-76.5,-44.3C-69.4,-57,-56.7,-66.5,-43,-72C-29.3,-77.5,-14.6,-79,0.7,-80.2C16,-81.3,31.9,-82.1,43.7,-75.5Z" transform="translate(100 100)" />
</svg>
