<?xml version="1.0" standalone="no"?>
<svg viewBox="0 0 200 200" xmlns="http://www.w3.org/2000/svg">
  <path fill="#F1C21B" d="M40.5,-71.5C52.9,-63,63.6,-52.9,71.2,-40.8C78.9,-28.6,83.6,-14.3,83.2,-0.2C82.9,13.8,77.3,27.7,69.2,39C61,50.4,50.2,59.3,38.2,65C26.3,70.7,13.1,73.2,0,73.2C-13.1,73.2,-26.2,70.7,-38.6,65.2C-51,59.8,-62.7,51.3,-71.5,40C-80.4,28.6,-86.4,14.3,-87.9,-0.8C-89.3,-15.9,-86.1,-31.9,-77.4,-43.6C-68.8,-55.3,-54.7,-62.8,-40.9,-70.4C-27,-78,-13.5,-85.8,0.3,-86.2C14.1,-86.7,28.1,-79.9,40.5,-71.5Z" transform="translate(100 100)" />
</svg>
