<?xml version="1.0" standalone="no"?>
<svg viewBox="0 0 200 200" xmlns="http://www.w3.org/2000/svg">
  <path fill="#F1C21B" d="M43.4,-74C56.8,-67.5,68.5,-56.9,74.8,-43.9C81.1,-30.8,82.1,-15.4,79.8,-1.3C77.6,12.8,72,25.6,65.3,37.9C58.6,50.2,50.6,62,39.5,71.6C28.4,81.2,14.2,88.6,0.4,87.9C-13.3,87.1,-26.6,78.2,-40.9,70.4C-55.1,62.6,-70.2,55.9,-77.8,44.4C-85.3,32.8,-85.4,16.4,-83.8,1C-82.1,-14.5,-78.7,-29,-71,-40.3C-63.3,-51.7,-51.3,-59.8,-38.7,-66.8C-26.2,-73.7,-13.1,-79.5,1,-81.2C15,-82.9,30.1,-80.5,43.4,-74Z" transform="translate(100 100)" />
</svg>
