<?xml version="1.0" standalone="no"?>
<svg viewBox="0 0 200 200" xmlns="http://www.w3.org/2000/svg">
  <path fill="#F1C21B" d="M38.9,-69.8C50.7,-60.6,60.8,-50.7,67.3,-39C73.8,-27.3,76.8,-13.6,77,0.1C77.1,13.8,74.4,27.6,69.4,41.9C64.4,56.3,57,71.1,45,80.4C33.1,89.7,16.5,93.4,1.4,90.9C-13.7,88.4,-27.4,79.8,-39.1,70.4C-50.8,60.9,-60.5,50.7,-67.3,38.9C-74,27,-77.8,13.5,-77.5,0.2C-77.2,-13.2,-72.8,-26.3,-66.4,-38.8C-60,-51.2,-51.5,-62.9,-40.1,-72.4C-28.7,-81.9,-14.4,-89.2,-0.4,-88.4C13.5,-87.7,27.1,-79.1,38.9,-69.8Z" transform="translate(100 100)" />
</svg>
