<?xml version="1.0" standalone="no"?>
<svg viewBox="0 0 200 200" xmlns="http://www.w3.org/2000/svg">
  <path fill="#F1C21B" d="M39.4,-66.1C52.2,-60.9,64.5,-52.6,70.8,-41.1C77.1,-29.6,77.4,-14.8,78.2,0.4C78.9,15.6,80.1,31.3,75.1,45.1C70.2,59,59.1,71,45.5,79.8C32,88.6,16,94.2,1.7,91.3C-12.6,88.4,-25.3,77.1,-38.6,68.1C-52,59.2,-66,52.7,-76.1,41.7C-86.2,30.8,-92.5,15.4,-90.9,0.9C-89.3,-13.6,-79.9,-27.2,-70.3,-38.9C-60.6,-50.6,-50.6,-60.4,-38.8,-66.2C-27.1,-72,-13.5,-73.8,-0.1,-73.6C13.3,-73.4,26.6,-71.3,39.4,-66.1Z" transform="translate(100 100)" />
</svg>
