<?xml version="1.0" standalone="no"?>
<svg viewBox="0 0 200 200" xmlns="http://www.w3.org/2000/svg">
  <path fill="#F1C21B" d="M38,-65.9C49.5,-59.2,59.1,-49.5,67.7,-38C76.2,-26.5,83.5,-13.2,82.9,-0.4C82.3,12.5,73.6,25,65.6,37.3C57.6,49.6,50.1,61.7,39.2,70.1C28.4,78.6,14.2,83.3,-0.5,84.2C-15.2,85.1,-30.4,82.1,-43.5,75C-56.7,67.8,-67.7,56.7,-74.1,43.5C-80.4,30.3,-82,15.2,-80.3,1C-78.6,-13.2,-73.7,-26.5,-66.1,-37.4C-58.5,-48.4,-48.3,-57.1,-36.8,-63.8C-25.3,-70.5,-12.7,-75.2,0.3,-75.7C13.3,-76.2,26.5,-72.6,38,-65.9Z" transform="translate(100 100)" />
</svg>
