<?xml version="1.0" standalone="no"?>
<svg viewBox="0 0 200 200" xmlns="http://www.w3.org/2000/svg">
  <path fill="#F1C21B" d="M43,-75.8C56.1,-66.9,67.3,-56.1,74.1,-43.1C80.9,-30.2,83.3,-15.1,82.4,-0.6C81.4,14,77.1,28,71,42.2C64.9,56.4,57.1,70.8,44.9,77.8C32.8,84.7,16.4,84.1,0.8,82.7C-14.8,81.3,-29.7,79.2,-41.3,72C-53,64.9,-61.5,52.7,-69.9,39.8C-78.3,27,-86.7,13.5,-86.7,0C-86.8,-13.6,-78.7,-27.1,-70,-39.5C-61.3,-51.8,-52,-63,-40.3,-72.7C-28.5,-82.3,-14.3,-90.6,0.3,-91.2C15,-91.8,29.9,-84.8,43,-75.8Z" transform="translate(100 100)" />
</svg>
