<?xml version="1.0" standalone="no"?>
<svg viewBox="0 0 200 200" xmlns="http://www.w3.org/2000/svg">
  <path fill="#F1C21B" d="M42.6,-75.2C54,-67.3,61.3,-53.4,68.9,-39.9C76.5,-26.3,84.6,-13.2,87.4,1.6C90.3,16.5,87.9,32.9,79.9,45.8C71.9,58.7,58.2,67.9,44,73.6C29.7,79.3,14.9,81.4,0.6,80.3C-13.6,79.3,-27.2,75,-38.2,67.4C-49.3,59.9,-57.7,49,-64.4,37.2C-71.1,25.4,-76.1,12.7,-79.2,-1.8C-82.3,-16.3,-83.4,-32.6,-77.5,-45.7C-71.6,-58.9,-58.6,-69,-44.5,-75.4C-30.4,-81.7,-15.2,-84.5,0.2,-84.8C15.6,-85.2,31.2,-83.2,42.6,-75.2Z" transform="translate(100 100)" />
</svg>
