<?xml version="1.0" standalone="no"?>
<svg viewBox="0 0 200 200" xmlns="http://www.w3.org/2000/svg">
  <path fill="#F1C21B" d="M38.1,-65.8C50.5,-58.9,62.3,-50.9,68.5,-39.7C74.6,-28.5,75,-14.3,76.3,0.7C77.6,15.7,79.7,31.5,75.2,45.5C70.7,59.5,59.7,71.9,46.1,77.7C32.4,83.5,16.2,82.8,0.5,82C-15.2,81.2,-30.5,80.2,-42.7,73.5C-54.9,66.9,-64,54.6,-72.8,41.4C-81.6,28.2,-90.1,14.1,-92.3,-1.3C-94.5,-16.6,-90.4,-33.2,-81.7,-46.6C-72.9,-59.9,-59.6,-69.9,-45.2,-75.7C-30.8,-81.4,-15.4,-82.7,-1.3,-80.5C12.9,-78.4,25.8,-72.7,38.1,-65.8Z" transform="translate(100 100)" />
</svg>
