<?xml version="1.0" standalone="no"?>
<svg viewBox="0 0 200 200" xmlns="http://www.w3.org/2000/svg">
  <path fill="#F1C21B" d="M38.9,-69.1C51.4,-60.3,63,-51.7,72.4,-40.2C81.9,-28.7,89.2,-14.3,87.9,-0.7C86.7,12.9,76.8,25.8,67.3,37.2C57.9,48.7,48.8,58.7,37.6,66.3C26.4,73.9,13.2,79.1,-1.2,81.2C-15.6,83.3,-31.2,82.1,-45.5,76.3C-59.8,70.5,-72.8,60,-78.1,46.5C-83.4,33,-81.1,16.5,-77.8,1.9C-74.5,-12.7,-70.2,-25.4,-64.9,-38.9C-59.6,-52.4,-53.2,-66.7,-42.2,-76.3C-31.2,-85.9,-15.6,-90.9,-1.2,-88.9C13.3,-86.9,26.5,-77.9,38.9,-69.1Z" transform="translate(100 100)" />
</svg>
