<?xml version="1.0" standalone="no"?>
<svg viewBox="0 0 200 200" xmlns="http://www.w3.org/2000/svg">
  <path fill="#F1C21B" d="M38.3,-66.2C51.5,-58.7,65.4,-52.2,74.6,-41.4C83.7,-30.5,88.2,-15.3,88.8,0.3C89.4,15.9,86.1,31.9,77.6,43.9C69.1,56,55.4,64.1,41.6,71.6C27.8,79.1,13.9,85.8,-0.8,87.3C-15.6,88.7,-31.2,84.8,-45.1,77.5C-59.1,70.1,-71.4,59.2,-76.5,45.7C-81.6,32.2,-79.6,16.1,-76.6,1.7C-73.7,-12.7,-69.8,-25.4,-64.4,-38.3C-58.9,-51.3,-51.9,-64.5,-40.9,-73.3C-29.9,-82.1,-15,-86.6,-1.2,-84.5C12.5,-82.4,25.1,-73.8,38.3,-66.2Z" transform="translate(100 100)" />
</svg>
