<?xml version="1.0" standalone="no"?>
<svg viewBox="0 0 200 200" xmlns="http://www.w3.org/2000/svg">
  <path fill="#F1C21B" d="M42.6,-76.1C53.5,-67.5,59.6,-52.7,64.3,-39C68.9,-25.3,72.1,-12.6,73.3,0.7C74.5,14.1,73.8,28.1,67.7,39.2C61.5,50.3,50,58.5,37.8,65.4C25.6,72.3,12.8,77.9,-0.4,78.7C-13.7,79.4,-27.4,75.3,-38.6,67.8C-49.9,60.4,-58.8,49.7,-66.8,37.9C-74.9,26,-82.1,13,-82.5,-0.2C-82.9,-13.5,-76.5,-27,-68.6,-39C-60.6,-51.1,-51.3,-61.8,-39.6,-70C-27.9,-78.2,-14,-84,0.9,-85.6C15.8,-87.2,31.6,-84.7,42.6,-76.1Z" transform="translate(100 100)" />
</svg>
