<?xml version="1.0" standalone="no"?>
<svg viewBox="0 0 200 200" xmlns="http://www.w3.org/2000/svg">
  <path fill="#F1C21B" d="M43.6,-72.9C57.9,-67.2,71.9,-58.4,79.9,-45.7C87.8,-33.1,89.7,-16.5,87.7,-1.2C85.6,14.1,79.5,28.3,71.6,41C63.6,53.6,53.8,64.8,41.5,72.3C29.3,79.7,14.6,83.4,-0.5,84.4C-15.7,85.3,-31.4,83.5,-44.1,76.3C-56.8,69.1,-66.5,56.5,-74.1,42.9C-81.7,29.3,-87.2,14.7,-87.5,-0.2C-87.8,-15,-82.8,-30,-74.9,-43.1C-67.1,-56.2,-56.3,-67.5,-43.3,-74.1C-30.3,-80.6,-15.2,-82.3,-0.3,-81.8C14.6,-81.3,29.2,-78.6,43.6,-72.9Z" transform="translate(100 100)" />
</svg>
