<?xml version="1.0" standalone="no"?>
<svg viewBox="0 0 200 200" xmlns="http://www.w3.org/2000/svg">
  <path fill="#F1C21B" d="M37.1,-67.3C48.1,-57.9,57.1,-48,65.3,-36.7C73.5,-25.4,81,-12.7,82.8,1.1C84.7,14.8,80.9,29.7,73.3,42C65.6,54.3,54.1,64.1,41.3,73.2C28.4,82.3,14.2,90.8,-0.3,91.2C-14.7,91.7,-29.5,84.1,-42.1,74.9C-54.8,65.6,-65.3,54.7,-72.5,42C-79.7,29.2,-83.5,14.6,-84.7,-0.7C-85.9,-16,-84.4,-31.9,-77.3,-44.9C-70.2,-57.8,-57.6,-67.8,-43.7,-75.5C-29.9,-83.2,-15,-88.8,-0.9,-87.2C13.1,-85.5,26.1,-76.7,37.1,-67.3Z" transform="translate(100 100)" />
</svg>
