<?xml version="1.0" standalone="no"?>
<svg viewBox="0 0 200 200" xmlns="http://www.w3.org/2000/svg">
  <path fill="#F1C21B" d="M44.6,-78.9C57.4,-69.8,67.1,-57.1,74.5,-43.3C82,-29.6,87.1,-14.8,87.1,0C87,14.7,81.8,29.4,74.3,43.2C66.9,57,57.3,69.8,44.6,76.2C31.8,82.6,15.9,82.4,0.7,81.2C-14.4,79.9,-28.9,77.5,-40.4,70.4C-52,63.4,-60.7,51.7,-66.1,39.2C-71.5,26.7,-73.5,13.4,-75.4,-1.1C-77.3,-15.6,-79,-31.1,-74.5,-45.1C-70.1,-59.1,-59.3,-71.6,-45.8,-80.3C-32.4,-89,-16.2,-93.9,-0.1,-93.6C15.9,-93.4,31.8,-88,44.6,-78.9Z" transform="translate(100 100)" />
</svg>
