<?xml version="1.0" standalone="no"?>
<svg viewBox="0 0 200 200" xmlns="http://www.w3.org/2000/svg">
  <path fill="#F1C21B" d="M46,-80.4C58.8,-72.2,67.9,-58.4,74.6,-44C81.3,-29.6,85.5,-14.8,86,0.3C86.5,15.4,83.4,30.9,75.3,42.8C67.3,54.8,54.4,63.4,41.1,70.8C27.7,78.1,13.8,84.3,-1,86C-15.8,87.7,-31.7,85,-43.6,76.8C-55.5,68.6,-63.6,55,-68.7,41.3C-73.9,27.6,-76.1,13.8,-77.2,-0.6C-78.3,-15,-78.2,-30.1,-72.6,-43C-67,-55.9,-55.8,-66.7,-42.8,-74.7C-29.8,-82.7,-14.9,-88,0.8,-89.5C16.6,-90.9,33.2,-88.5,46,-80.4Z" transform="translate(100 100)" />
</svg>
