<?xml version="1.0" standalone="no"?>
<svg viewBox="0 0 200 200" xmlns="http://www.w3.org/2000/svg">
  <path fill="#F1C21B" d="M40,-71.2C51.4,-62.7,60,-51.1,68.5,-38.7C76.9,-26.4,85.4,-13.2,88.4,1.7C91.4,16.6,88.9,33.3,80.4,45.6C71.9,58,57.3,66,42.9,71C28.5,76,14.3,78,-1.1,80C-16.5,81.9,-33.1,84,-44.9,77.5C-56.7,71,-63.8,56,-70,41.6C-76.2,27.3,-81.6,13.6,-80.6,0.6C-79.6,-12.5,-72.3,-25,-64.1,-36C-56,-46.9,-46.9,-56.3,-36.1,-65C-25.3,-73.8,-12.6,-82,0.8,-83.4C14.3,-84.9,28.6,-79.6,40,-71.2Z" transform="translate(100 100)" />
</svg>
