<?xml version="1.0" standalone="no"?>
<svg viewBox="0 0 200 200" xmlns="http://www.w3.org/2000/svg">
  <path fill="#F1C21B" d="M46.4,-77.5C60.5,-72.2,72.5,-60.5,80,-46.5C87.6,-32.5,90.7,-16.3,89.1,-0.9C87.4,14.4,81.1,28.8,72.1,40.2C63,51.6,51.3,60,38.8,67.1C26.4,74.2,13.2,80,-1.3,82.3C-15.8,84.5,-31.5,83.2,-43.1,75.6C-54.7,68,-62.1,54.1,-68.3,40.4C-74.5,26.7,-79.6,13.4,-80.4,-0.5C-81.2,-14.3,-77.7,-28.6,-70.3,-40.1C-62.8,-51.7,-51.4,-60.5,-39.1,-66.8C-26.7,-73,-13.4,-76.6,1.4,-79.1C16.2,-81.5,32.3,-82.7,46.4,-77.5Z" transform="translate(100 100)" />
</svg>
