<?xml version="1.0" standalone="no"?>
<svg viewBox="0 0 200 200" xmlns="http://www.w3.org/2000/svg">
  <path fill="#F1C21B" d="M42.9,-76C55.6,-67,65.7,-55.4,71.2,-42.3C76.6,-29.2,77.3,-14.6,76.2,-0.6C75.1,13.3,72.2,26.7,67.6,41.1C62.9,55.5,56.4,71,44.8,79.7C33.3,88.5,16.6,90.5,1.5,88C-13.7,85.4,-27.4,78.3,-41.4,70.9C-55.4,63.6,-69.7,56.1,-79.3,44.2C-88.8,32.4,-93.5,16.2,-91.7,1C-90,-14.2,-81.8,-28.3,-72.8,-41.2C-63.9,-54.1,-54.3,-65.7,-42,-74.9C-29.8,-84.2,-14.9,-91,0.1,-91.2C15.1,-91.4,30.3,-85,42.9,-76Z" transform="translate(100 100)" />
</svg>
